<mxfile host="app.diagrams.net" agent="Mozilla/5.0 (Macintosh; Intel Mac OS X 10_15_7) AppleWebKit/537.36 (KHTML, like Gecko) Chrome/131.0.0.0 Safari/537.36" version="25.0.1">
  <diagram name="Page-1" id="rNfvPmkUGiiJKIeVJPG-">
    <mxGraphModel dx="1224" dy="625" grid="1" gridSize="10" guides="1" tooltips="1" connect="1" arrows="1" fold="1" page="1" pageScale="1" pageWidth="850" pageHeight="1100" math="0" shadow="0">
      <root>
        <mxCell id="0" />
        <mxCell id="1" parent="0" />
        <mxCell id="Z5hGQ1nHXZcv2nui1TO5-1" value="&lt;b&gt;&lt;font style=&quot;font-size: 14px;&quot;&gt;Narcissistic Leadership&lt;/font&gt;&lt;/b&gt;" style="ellipse;whiteSpace=wrap;html=1;" parent="1" vertex="1">
          <mxGeometry x="40" y="240" width="180" height="80" as="geometry" />
        </mxCell>
        <mxCell id="Z5hGQ1nHXZcv2nui1TO5-3" value="&lt;b style=&quot;font-size: medium; text-align: start;&quot;&gt;&lt;span style=&quot;font-size: 12pt; line-height: 32px; font-family: &amp;quot;Times New Roman&amp;quot;, serif;&quot; lang=&quot;EN-US&quot;&gt;Employee Burnout&lt;/span&gt;&lt;/b&gt;" style="ellipse;whiteSpace=wrap;html=1;" parent="1" vertex="1">
          <mxGeometry x="620" y="230" width="160" height="80" as="geometry" />
        </mxCell>
        <mxCell id="Z5hGQ1nHXZcv2nui1TO5-4" value="&lt;b&gt;Psychological Safety&lt;/b&gt;" style="ellipse;whiteSpace=wrap;html=1;" parent="1" vertex="1">
          <mxGeometry x="360" y="240" width="130" height="80" as="geometry" />
        </mxCell>
        <mxCell id="Z5hGQ1nHXZcv2nui1TO5-5" value="" style="endArrow=classic;html=1;rounded=0;entryX=0;entryY=0.5;entryDx=0;entryDy=0;exitX=1;exitY=0.5;exitDx=0;exitDy=0;" parent="1" source="Z5hGQ1nHXZcv2nui1TO5-1" target="Z5hGQ1nHXZcv2nui1TO5-4" edge="1">
          <mxGeometry width="50" height="50" relative="1" as="geometry">
            <mxPoint x="210" y="260" as="sourcePoint" />
            <mxPoint x="260" y="210" as="targetPoint" />
          </mxGeometry>
        </mxCell>
        <mxCell id="Z5hGQ1nHXZcv2nui1TO5-6" value="" style="endArrow=classic;html=1;rounded=0;exitX=1;exitY=0.5;exitDx=0;exitDy=0;" parent="1" edge="1" source="Z5hGQ1nHXZcv2nui1TO5-4">
          <mxGeometry width="50" height="50" relative="1" as="geometry">
            <mxPoint x="400" y="390" as="sourcePoint" />
            <mxPoint x="620" y="280" as="targetPoint" />
          </mxGeometry>
        </mxCell>
        <mxCell id="Z5hGQ1nHXZcv2nui1TO5-8" value="" style="endArrow=classic;html=1;rounded=0;exitX=1;exitY=0.625;exitDx=0;exitDy=0;exitPerimeter=0;" parent="1" source="Z5hGQ1nHXZcv2nui1TO5-1" edge="1">
          <mxGeometry width="50" height="50" relative="1" as="geometry">
            <mxPoint x="400" y="350" as="sourcePoint" />
            <mxPoint x="620" y="280" as="targetPoint" />
            <Array as="points">
              <mxPoint x="220" y="360" />
              <mxPoint x="621" y="360" />
            </Array>
          </mxGeometry>
        </mxCell>
        <mxCell id="Z5hGQ1nHXZcv2nui1TO5-11" value="Emotional Inteligence" style="ellipse;whiteSpace=wrap;html=1;" parent="1" vertex="1">
          <mxGeometry x="230" y="100" width="120" height="80" as="geometry" />
        </mxCell>
        <mxCell id="Z5hGQ1nHXZcv2nui1TO5-13" value="" style="endArrow=classic;html=1;rounded=0;exitX=0.5;exitY=1;exitDx=0;exitDy=0;" parent="1" source="Z5hGQ1nHXZcv2nui1TO5-11" edge="1">
          <mxGeometry width="50" height="50" relative="1" as="geometry">
            <mxPoint x="400" y="350" as="sourcePoint" />
            <mxPoint x="290" y="360" as="targetPoint" />
          </mxGeometry>
        </mxCell>
      </root>
    </mxGraphModel>
  </diagram>
</mxfile>
